HIERARCHY
ROOT RootJoint
{
    OFFSET   0.000000   0.000000   0.000000
    CHANNELS 6 Xposition Yposition Zposition Xrotation Yrotation Zrotation
    JOINT pelvis_lowerback
    {
        OFFSET   0.000000   0.093605   0.000000
        CHANNELS 3 Xrotation Yrotation Zrotation
        JOINT lowerback_torso
        {
            OFFSET   0.000000   0.100000   0.000000
            CHANNELS 3 Xrotation Yrotation Zrotation
            JOINT torso_head
            {
                OFFSET   0.000000   0.282350   0.000000
                CHANNELS 3 Xrotation Yrotation Zrotation
                End Site
                {
                    OFFSET   0.000000   0.192650   0.000000
                }
            }
            JOINT rTorso_Clavicle
            {
                OFFSET  -0.001000   0.157500   0.000000
                CHANNELS 3 Xrotation Yrotation Zrotation
                JOINT rShoulder
                {
                    OFFSET  -0.117647   0.000000   0.000000
                    CHANNELS 3 Xrotation Yrotation Zrotation
                    JOINT rElbow
                    {
                        OFFSET  -0.245000   0.000000   0.000000
                        CHANNELS 3 Xrotation Yrotation Zrotation
                        JOINT rWrist
                        {
                            OFFSET  -0.240000   0.000000   0.000000
                            CHANNELS 3 Xrotation Yrotation Zrotation
                            End Site
                            {
                                OFFSET  -0.116353  -0.002500   0.000000
                            }
                        }
                    }
                }
            }
            JOINT lTorso_Clavicle
            {
                OFFSET   0.001000   0.157500   0.000000
                CHANNELS 3 Xrotation Yrotation Zrotation
                JOINT lShoulder
                {
                    OFFSET   0.117647   0.000000   0.000000
                    CHANNELS 3 Xrotation Yrotation Zrotation
                    JOINT lElbow
                    {
                        OFFSET   0.245000   0.000000   0.000000
                        CHANNELS 3 Xrotation Yrotation Zrotation
                        JOINT lWrist
                        {
                            OFFSET   0.240000   0.000000   0.000000
                            CHANNELS 3 Xrotation Yrotation Zrotation
                            End Site
                            {
                                OFFSET   0.116353  -0.002500   0.000000
                            }
                        }
                    }
                }
            }
        }
    }
    JOINT rHip
    {
        OFFSET  -0.100000  -0.051395   0.000000
        CHANNELS 3 Xrotation Yrotation Zrotation
        JOINT rKnee
        {
            OFFSET   0.000000  -0.410000   0.000000
            CHANNELS 3 Xrotation Yrotation Zrotation
            JOINT rAnkle
            {
                OFFSET   0.000000  -0.390000   0.000000
                CHANNELS 3 Xrotation Yrotation Zrotation
                JOINT rToeJoint
                {
                    OFFSET   0.000000  -0.050000   0.130000
                    CHANNELS 3 Xrotation Yrotation Zrotation
                    End Site
                    {
                        OFFSET  -0.010000   0.002000   0.060000
                    }
                }
            }
        }
    }
    JOINT lHip
    {
        OFFSET   0.100000  -0.051395   0.000000
        CHANNELS 3 Xrotation Yrotation Zrotation
        JOINT lKnee
        {
            OFFSET   0.000000  -0.410000   0.000000
            CHANNELS 3 Xrotation Yrotation Zrotation
            JOINT lAnkle
            {
                OFFSET   0.000000  -0.390000   0.000000
                CHANNELS 3 Xrotation Yrotation Zrotation
                JOINT lToeJoint
                {
                    OFFSET   0.000000  -0.050000   0.130000
                    CHANNELS 3 Xrotation Yrotation Zrotation
                    End Site
                    {
                        OFFSET   0.010000   0.002000   0.060000
                    }
                }
            }
        }
    }
}
MOTION
Frames: 7
Frame Time:   0.008333
 -2.321291   1.141218   4.092227  -3.794513  -8.904958 -10.111763   7.538217   2.739209   9.973996   5.720220  -2.952439   4.805596   4.766943  -1.722464  -8.039545  -4.241660  19.300707 -29.013013 -11.593738  17.430854  14.899679   0.064526  81.440892  -0.054209   3.773749   3.138658  -8.869401  -8.305496  -8.503937  22.225187 -17.814187  -7.152187  -7.253385   6.896688 -89.402114   6.878780  -3.189819 -10.721559   9.723576 -10.583978 -12.052730   2.008761  52.491355   0.001828   0.009434  16.765635 -11.929954  16.235717  10.239602  -0.004945  -0.021558 -14.764557   0.977328   9.234059  37.115295  -0.002799  -0.015386  22.306702   7.970415 -12.957610   3.267114   0.115426  -0.019811
 -2.319551   1.154481   4.095995  -4.314392  -9.088714  -9.071093   7.488239   2.867730   8.750796   5.788193  -3.209466   4.455899   4.954115  -1.822979  -7.719703  -4.018120  18.329830 -27.217413 -10.329433  16.849107  15.241686   0.044976  81.339716  -0.038277   3.754667   3.092479  -8.465787  -7.537917  -8.245013  20.875959 -15.840174  -6.919162  -7.401830  10.620974 -89.665411  10.601462  -3.205375 -10.689911   9.408683 -10.882048 -11.579055   0.940524  52.875977   0.001327   0.007890  17.370480 -11.208761  16.052506  10.181390  -0.004098  -0.017576 -14.384144   1.664127   8.038875  37.662580  -0.001223  -0.012186  22.483894   7.632222 -12.878461   3.687579   0.092398  -0.017399
 -2.317865   1.167091   4.099560  -4.836366  -9.211901  -8.176854   7.496905   2.969036   7.650914   5.883344  -3.453612   4.182903   5.109359  -1.912547  -7.415733  -3.765247  17.390299 -25.449373  -9.131993  16.270192  15.621674   0.028185  81.211370  -0.024925   3.700978   2.869227  -8.133971  -6.788086  -8.009828  19.599425 -13.969017  -6.696321  -7.558007  24.581030 -89.873353  24.561406  -3.225481 -10.594408   8.928936 -11.185192 -11.145756   0.042816  53.416500   0.000890   0.007069  17.936982 -10.531134  15.874790  10.110896  -0.003476  -0.014451 -14.012947   2.271694   6.994007  38.149723  -0.000064  -0.009486  22.657207   7.314775 -12.803512   4.111709   0.074109  -0.015262
 -2.316146   1.179031   4.102971  -5.355539  -9.294674  -7.369458   7.542997   3.051291   6.642588   6.012725  -3.696570   3.957369   5.253024  -1.994770  -7.133064  -3.484752  16.493984 -23.760423  -7.995669  15.719584  16.015041   0.015056  81.081604  -0.014594   3.637221   2.576240  -7.791426  -6.073992  -7.799277  18.391256 -12.212822  -6.491579  -7.721675 150.930358 -89.907151 150.911156  -3.248908 -10.469793   8.402597 -11.474645 -10.746735  -0.761631  53.971999   0.000565   0.006529  18.468935  -9.899428  15.703566  10.052590  -0.002945  -0.011875 -13.657253   2.826861   6.025798  38.593500   0.000839  -0.007290  22.818819   7.019227 -12.732639   4.499763   0.059583  -0.013315
 -2.314372   1.190277   4.106242  -5.867060  -9.355487  -6.628577   7.618166   3.120267   5.714767   6.167163  -3.933935   3.765758   5.389228  -2.070891  -6.869675  -3.185430  15.651426 -22.164635  -6.922065  15.206651  16.408488   0.005236  80.957258  -0.006897   3.573521   2.265895  -7.426075  -5.397856  -7.616251  17.254531 -10.568989  -6.309100  -7.887288 171.706110 -89.731227 171.687646  -3.270215 -10.350049   7.867833 -11.753119 -10.373844  -1.498159  54.504699   0.000325   0.006080  18.966862  -9.310988  15.538879  10.000493  -0.002499  -0.009772 -13.322355   3.339746   5.113319  39.002399   0.001532  -0.005558  22.969547   6.743593 -12.665993   4.854039   0.048012  -0.011601
 -2.312543   1.200810   4.109391  -6.368975  -9.405763  -5.945242   7.715945   3.179285   4.860465   6.339067  -4.162160   3.601992   5.519150  -2.141528  -6.623770  -2.875052  14.867781 -20.664856  -5.911667  14.734759  16.794724  -0.001806  80.841247  -0.001369   3.513896   1.962433  -7.044941  -4.759604  -7.461521  16.190145  -9.032495  -6.150340  -8.050505 175.668557 -89.557048 175.651033  -3.287370 -10.249082   7.337089 -12.022275 -10.023526  -2.177952  55.004547   0.000140   0.005645  19.432411  -8.762981  15.380822   9.952052  -0.002125  -0.008060 -13.008909   3.815072   4.249602  39.380421   0.002037  -0.004225  23.110157   6.486365 -12.603435   5.177665   0.038761  -0.010120
 -2.310666   1.210618   4.112437  -6.860548  -9.452553  -5.313969   7.830492   3.230326   4.073819   6.522337  -4.379258   3.462346   5.643274  -2.207137  -6.393879  -2.559764  14.144148 -19.259220  -4.963361  14.304115  17.169574  -0.006614  80.734784   0.002436   3.459909   1.677894  -6.656083  -4.158628  -7.334045  15.196860  -7.597674  -6.014857  -8.208290 177.278064 -89.389683 177.261605  -3.299936 -10.172260   6.816018 -12.282289  -9.693884  -2.807583  55.469972  -0.000014   0.005199  19.867520  -8.252660  15.229463   9.906347  -0.001811  -0.006667 -12.715959   4.256061   3.431609  39.730161   0.002381  -0.003218  23.241324   6.246260 -12.544750   5.473387   0.031341  -0.008850
